<?xml version="1.0" encoding="UTF-8" standalone="no"?>
<svg width="96px" height="195px" viewBox="0 0 96 195" version="1.1" xmlns="http://www.w3.org/2000/svg" xmlns:xlink="http://www.w3.org/1999/xlink">
    <defs></defs>
    <g id="Page-1" stroke="none" stroke-width="1" fill="none" fill-rule="evenodd">
        <g id="logo">
            <path d="M48,86.8 L95.1,39.7 L95.1,24 L71.5,0.5 L24.4,0.5 L1,24 L1,39.7 L48,86.8 L48,86.8 Z" id="Shape" fill="#EC1C24"></path>
            <g id="Group">
                <rect id="Rectangle-path" fill="#F27274" transform="translate(63.751160, 31.813110) rotate(-45.000000) translate(-63.751160, -31.813110) " x="58.2012132" y="26.2631632" width="11.0998936" height="11.0998936"></rect>
                <g>
                    <rect id="Rectangle-path" fill="#EC1C24" transform="translate(71.547180, 55.301310) rotate(225.000000) translate(-71.547180, -55.301310) " x="65.9972332" y="49.7513632" width="11.0998936" height="11.0998936"></rect>
                    <rect id="Rectangle-path" fill="#EC1C24" transform="translate(40.198110, 55.280840) rotate(225.000000) translate(-40.198110, -55.280840) " x="34.6481632" y="49.7308932" width="11.0998936" height="11.0998936"></rect>
                    <rect id="Rectangle-path" fill="#D32027" transform="translate(24.558480, 55.305810) rotate(225.000000) translate(-24.558480, -55.305810) " x="19.0085332" y="49.7558632" width="11.0998936" height="11.0998936"></rect>
                    <rect id="Rectangle-path" fill="#D32027" transform="translate(55.839850, 55.325120) rotate(45.000000) translate(-55.839850, -55.325120) " x="50.2899032" y="49.7751732" width="11.0998936" height="11.0998936"></rect>
                    <rect id="Rectangle-path" fill="#D32027" transform="translate(40.223180, 70.920070) rotate(225.000000) translate(-40.223180, -70.920070) " x="34.6732332" y="65.3701232" width="11.0998936" height="11.0998936"></rect>
                    <rect id="Rectangle-path" fill="#EC1C24" transform="translate(55.814780, 71.014590) rotate(45.000000) translate(-55.814780, -71.014590) " x="50.2648332" y="65.4646432" width="11.0998936" height="11.0998936"></rect>
                    <rect id="Rectangle-path" fill="#E94E61" transform="translate(71.522010, 39.662080) rotate(225.000000) translate(-71.522010, -39.662080) " x="65.9720632" y="34.1121332" width="11.0998936" height="11.0998936"></rect>
                    <rect id="Rectangle-path" fill="#D32027" transform="translate(87.161140, 39.637010) rotate(225.000000) translate(-87.161140, -39.637010) " x="81.6111932" y="34.0870632" width="11.0998936" height="11.0998936"></rect>
                    <rect id="Rectangle-path" fill="#EC1C24" transform="translate(55.865020, 39.635750) rotate(45.000000) translate(-55.865020, -39.635750) " x="50.3150732" y="34.0858032" width="11.0998936" height="11.0998936"></rect>
                    <rect id="Rectangle-path" fill="#E94E61" transform="translate(40.172540, 39.641510) rotate(225.000000) translate(-40.172540, -39.641510) " x="34.6225932" y="34.0915632" width="11.0998936" height="11.0998936"></rect>
                    <rect id="Rectangle-path" fill="#EC1C24" transform="translate(24.556790, 39.656320) rotate(45.000000) translate(-24.556790, -39.656320) " x="19.0068432" y="34.1063732" width="11.0998936" height="11.0998936"></rect>
                    <rect id="Rectangle-path" fill="#E94E61" transform="translate(8.867320, 39.631250) rotate(45.000000) translate(-8.867320, -39.631250) " x="3.31737322" y="34.0813032" width="11.0998936" height="11.0998936"></rect>
                    <rect id="Rectangle-path" fill="#EC1C24" transform="translate(71.567550, 23.952240) rotate(225.000000) translate(-71.567550, -23.952240) " x="66.0176032" y="18.4022932" width="11.0998936" height="11.0998936"></rect>
                    <rect id="Rectangle-path" fill="#E94E61" transform="translate(87.206780, 23.927070) rotate(225.000000) translate(-87.206780, -23.927070) " x="81.6568332" y="18.3771232" width="11.0998936" height="11.0998936"></rect>
                    <rect id="Rectangle-path" fill="#D32027" transform="translate(55.819380, 24.016990) rotate(45.000000) translate(-55.819380, -24.016990) " x="50.2694332" y="18.4670432" width="11.0998936" height="11.0998936"></rect>
                    <rect id="Rectangle-path" fill="#EC1C24" transform="translate(40.218080, 23.931570) rotate(225.000000) translate(-40.218080, -23.931570) " x="34.6681332" y="18.3816232" width="11.0998936" height="11.0998936"></rect>
                    <rect id="Rectangle-path" fill="#D32027" transform="translate(24.511150, 24.037560) rotate(45.000000) translate(-24.511150, -24.037560) " x="18.9612032" y="18.4876132" width="11.0998936" height="11.0998936"></rect>
                    <rect id="Rectangle-path" fill="#D32027" transform="translate(71.542480, 8.313010) rotate(225.000000) translate(-71.542480, -8.313010) " x="65.9925332" y="2.76306322" width="11.0998936" height="11.0998936"></rect>
                    <rect id="Rectangle-path" fill="#EC1C24" transform="translate(55.844550, 8.327520) rotate(45.000000) translate(-55.844550, -8.327520) " x="50.2946032" y="2.77757322" width="11.0998936" height="11.0998936"></rect>
                    <rect id="Rectangle-path" fill="#E94E61" transform="translate(40.192910, 8.292440) rotate(225.000000) translate(-40.192910, -8.292440) " x="34.6429632" y="2.74249322" width="11.0998936" height="11.0998936"></rect>
                    <rect id="Rectangle-path" fill="#EC1C24" transform="translate(24.536320, 8.348190) rotate(45.000000) translate(-24.536320, -8.348190) " x="18.9863732" y="2.79824322" width="11.0998936" height="11.0998936"></rect>
                    <rect id="Rectangle-path" fill="#EC1C24" transform="translate(8.821780, 24.012499) rotate(45.000000) translate(-8.821780, -24.012499) " x="3.27183322" y="18.4625523" width="11.0998936" height="11.0998936"></rect>
                    <rect id="Rectangle-path" fill="#A41D30" transform="translate(48.030210, 63.158580) rotate(225.000000) translate(-48.030210, -63.158580) " x="42.4802632" y="57.6086332" width="11.0998936" height="11.0998936"></rect>
                    <rect id="Rectangle-path" fill="#BE1E2D" transform="translate(63.742760, 63.182390) rotate(45.000000) translate(-63.742760, -63.182390) " x="58.1928132" y="57.6324432" width="11.0998936" height="11.0998936"></rect>
                    <rect id="Rectangle-path" fill="#A41D30" transform="translate(63.697120, 47.563730) rotate(45.000000) translate(-63.697120, -47.563730) " x="58.1471732" y="42.0137832" width="11.0998936" height="11.0998936"></rect>
                    <rect id="Rectangle-path" fill="#BE1E2D" transform="translate(48.075350, 47.448540) rotate(225.000000) translate(-48.075350, -47.448540) " x="42.5254032" y="41.8985932" width="11.0998936" height="11.0998936"></rect>
                    <rect id="Rectangle-path" fill="#BE1E2D" transform="translate(16.699420, 47.559230) rotate(45.000000) translate(-16.699420, -47.559230) " x="11.1494732" y="42.0092832" width="11.0998936" height="11.0998936"></rect>
                    <rect id="Rectangle-path" fill="#A41D30" transform="translate(79.399750, 31.829980) rotate(225.000000) translate(-79.399750, -31.829980) " x="73.8498032" y="26.2800332" width="11.0998936" height="11.0998936"></rect>
                    <path d="M87.2,31.8 L95,39.7 L95,24 L87.2,31.8 Z" id="Shape" fill="#BE1E2D"></path>
                    <rect id="Rectangle-path" fill="#A41D30" transform="translate(48.050180, 31.809310) rotate(225.000000) translate(-48.050180, -31.809310) " x="42.5002332" y="26.2593632" width="11.0998936" height="11.0998936"></rect>
                    <rect id="Rectangle-path" fill="#BE1E2D" transform="translate(32.343350, 31.824220) rotate(45.000000) translate(-32.343350, -31.824220) " x="26.7934032" y="26.2742732" width="11.0998936" height="11.0998936"></rect>
                    <rect id="Rectangle-path" fill="#A41D30" transform="translate(79.374580, 16.190750) rotate(225.000000) translate(-79.374580, -16.190750) " x="73.8246332" y="10.6408032" width="11.0998936" height="11.0998936"></rect>
                    <rect id="Rectangle-path" fill="#BE1E2D" transform="translate(63.747460, 16.184790) rotate(45.000000) translate(-63.747460, -16.184790) " x="58.1975132" y="10.6348432" width="11.0998936" height="11.0998936"></rect>
                    <rect id="Rectangle-path" fill="#A41D30" transform="translate(48.025110, 16.170180) rotate(225.000000) translate(-48.025110, -16.170180) " x="42.4751632" y="10.6202332" width="11.0998936" height="11.0998936"></rect>
                    <path d="M40.2,0.5 L24.5,0.5 L32.4,8.3 L40.2,0.5 Z" id="Shape" fill="#BE1E2D"></path>
                    <rect id="Rectangle-path" fill="#BE1E2D" transform="translate(16.749760, 16.180290) rotate(45.000000) translate(-16.749760, -16.180290) " x="11.1998132" y="10.6303432" width="11.0998936" height="11.0998936"></rect>
                    <rect id="Rectangle-path" fill="#A41D30" transform="translate(16.724590, 31.869760) rotate(45.000000) translate(-16.724590, -31.869760) " x="11.1746432" y="26.3198132" width="11.0998936" height="11.0998936"></rect>
                    <path d="M63.7,8.3 L71.5,0.5 L55.9,0.5 L63.7,8.3 Z" id="Shape" fill="#E94E61"></path>
                    <path d="M63.7,26 L71.4,31.7 L65.7,24 L71.4,16.3 L63.7,22 L56,16.3 L61.7,24 L56,31.7 L63.7,26 Z" id="Shape" fill="#FFFFFF"></path>
                </g>
                <g transform="translate(0.000000, 103.000000)" id="Shape" fill="#FFFFFF">
                    <path d="M0.9,24 L0.9,0.6 L11.6,0.6 L14.9,3.9 L14.9,7.4 L9,12.5 L14.9,23.9 L12.8,23.9 L7.5,13.8 L2.8,17.7 L2.8,23.9 L0.9,23.9 L0.9,24 Z M2.9,2.4 L2.9,15.3 L12.9,6.9 L12.9,4.5 L10.8,2.4 L2.9,2.4 L2.9,2.4 Z"></path>
                    <path d="M41.7,0.5 L41.7,20.6 L38.4,23.9 L31,23.9 L27.7,20.6 L27.7,0.5 L29.7,0.5 L29.7,20 L31.8,22.1 L37.7,22.1 L39.8,20 L39.8,0.5 L41.7,0.5 L41.7,0.5 Z"></path>
                    <path d="M54.4,24 L54.4,0.6 L65.1,0.6 L68.4,3.9 L68.4,8.4 L66,10.8 L68.4,13.2 L68.4,20.6 L65.1,23.9 L54.4,23.9 L54.4,24 Z M56.4,2.4 L56.4,9.9 L64.4,9.9 L66.5,7.8 L66.5,4.4 L64.4,2.3 L56.4,2.3 L56.4,2.4 Z M56.4,11.7 L56.4,22.1 L64.4,22.1 L66.5,20 L66.5,13.8 L64.4,11.7 L56.4,11.7 L56.4,11.7 Z"></path>
                    <path d="M81.2,12.9 L81.2,0.5 L83.2,0.5 L83.2,12.3 L85.3,14.4 L91,14.4 L93.2,12.2 L93.2,0.5 L95.2,0.5 L95.2,12.8 L91.8,16.2 L89.2,16.2 L89.2,23.9 L87.2,23.9 L87.2,16.2 L84.5,16.2 L81.2,12.9 L81.2,12.9 Z"></path>
                    <path d="M11.6,34 L14.9,37.3 L13.6,38.6 L10.8,35.8 L4.9,35.8 L2.8,37.9 L2.8,53.5 L4.9,55.6 L10.8,55.6 L13.6,52.8 L14.9,54.1 L11.6,57.4 L4.2,57.4 L0.9,54.1 L0.9,37.4 L4.2,34.1 L11.6,34.1 L11.6,34 Z"></path>
                    <path d="M27.6,37.3 L31,34 L38.4,34 L41.7,37.3 L41.7,54 L38.4,57.3 L31,57.3 L27.7,54 L27.7,37.3 L27.6,37.3 Z M29.6,37.9 L29.6,53.5 L31.7,55.6 L37.6,55.6 L39.7,53.5 L39.7,37.9 L37.6,35.8 L31.7,35.8 L29.6,37.9 L29.6,37.9 Z"></path>
                    <path d="M54.4,57.4 L54.4,34 L56.4,34 L66.4,53.2 L66.4,34 L68.4,34 L68.4,57.4 L66.3,57.4 L56.3,38.3 L56.3,57.4 L54.4,57.4 L54.4,57.4 Z"></path>
                    <path d="M81.2,57.4 L81.2,34 L95.3,34 L95.3,35.8 L83.3,35.8 L83.3,45.7 L93,45.7 L93,47.5 L83.3,47.5 L83.3,57.4 L81.2,57.4 L81.2,57.4 Z"></path>
                    <g transform="translate(0.000000, 68.000000)">
                        <path d="M14.9,23.5 L4.2,23.5 L0.9,20.2 L0.9,0.1 L2.9,0.1 L2.9,19.6 L5,21.7 L15,21.7 L15,23.5 L14.9,23.5 Z"></path>
                        <path d="M28.4,2 L22.4,2 L22.4,0.2 L36.5,0.2 L36.5,2 L30.5,2 L30.5,23.6 L28.5,23.6 L28.5,2 L28.4,2 Z"></path>
                    </g>
                    <g transform="translate(60.000000, 68.000000)">
                        <path d="M14.5,23.5 L0.5,23.5 L0.5,21.7 L6.5,21.7 L6.5,2 L4.6,2 L1.8,4.8 L0.5,3.5 L3.8,0.2 L8.5,0.2 L8.5,21.8 L14.5,21.8 L14.5,23.5 L14.5,23.5 Z"></path>
                        <path d="M21.6,11.2 L21.6,0.2 L34.6,0.2 L34.6,2 L23.6,2 L23.6,9.4 L31.3,9.4 L34.6,12.7 L34.6,20.2 L31.3,23.5 L23.9,23.5 L20.6,20.2 L21.9,18.9 L24.7,21.7 L30.6,21.7 L32.7,19.6 L32.7,13.2 L30.6,11.1 L21.6,11.1 L21.6,11.2 Z"></path>
                    </g>
                    <path d="M51.9,69.5 L53.6,68.1 L53.6,73.2 L51.9,73.2 L51.9,69.5 L51.9,69.5 Z"></path>
                </g>
                <rect id="Rectangle-path" fill="#F27274" transform="translate(32.390680, 63.183550) rotate(225.000000) translate(-32.390680, -63.183550) " x="26.8407332" y="57.6336032" width="11.0998936" height="11.0998936"></rect>
                <rect id="Rectangle-path" fill="#F27274" transform="translate(48.055380, 78.797710) rotate(225.000000) translate(-48.055380, -78.797710) " x="42.5054332" y="73.2477632" width="11.0998936" height="11.0998936"></rect>
                <rect id="Rectangle-path" fill="#F27274" transform="translate(79.424920, 47.469110) rotate(225.000000) translate(-79.424920, -47.469110) " x="73.8749732" y="41.9191632" width="11.0998936" height="11.0998936"></rect>
                <rect id="Rectangle-path" fill="#F27274" transform="translate(32.436320, 47.473510) rotate(225.000000) translate(-32.436320, -47.473510) " x="26.8863732" y="41.9235632" width="11.0998936" height="11.0998936"></rect>
                <rect id="Rectangle-path" fill="#F27274" transform="translate(32.386180, 16.195150) rotate(225.000000) translate(-32.386180, -16.195150) " x="26.8362332" y="10.6452032" width="11.0998936" height="11.0998936"></rect>
                <path d="M1,39.7 L8.9,31.8 L1,24 L1,39.7 Z" id="Shape" fill="#F27274"></path>
                <path d="M55.9,0.5 L40.2,0.5 L48,8.3 L55.9,0.5 Z" id="Shape" fill="#F27274"></path>
            </g>
        </g>
    </g>
</svg>